<?xml version="1.0" ?><svg viewBox="0 0 1000 1000" xmlns="http://www.w3.org/2000/svg"><path d="m149.53 191.89c14.45-2.72 28.52 10.05 31.26 24.5s-3.36 29.27-12 41.2-19.7 21.83-29 33.25-16.85 25.16-16.58 39.87c.14 7.4 2.73 15.3 8.9 19.37 3.52 2.31 7.78 3.13 11.94 3.73a156.42 156.42 0 0 0 51.49-1.1c11-2.09 23.24-6.55 27.46-17 2.51-6.16 1.61-13.11 2.42-19.72 1.76-14.45 11.47-26.44 19.61-38.52 24.49-36.34 37-84 20.34-124.54-12.27-29.85-39.46-52.44-70.29-62s-64.79-6.69-94.89 4.93c-11.51 4.45-22.6 10.17-32.3 17.8-37.29 29.41-48.06 82.68-40.73 129.57.53 3.37 1.23 6.92 3.53 9.43 2.57 2.8 6.58 3.7 10.33 4.3a152.37 152.37 0 0 0 81.55-9.35c3-1.24 6.17-2.68 8.15-5.29 4.5-5.93 1.16-14.26-.83-21.43s-4.37-25.43 17.55-28.59" fill="#18c4ff"/><path d="m202.27 380.26c-11.94-.27-23.75-2.56-35.68-3s-24.44 1.17-34.31 7.89c-28.13 19.18-20.76 71 15.53 74.87 13.92 1.48 28 2.92 41.87.69 15.72-2.55 24.75-11.35 26.88-27a204.26 204.26 0 0 0 1.54-39.08c-.17-3.08-.44-6.25-1.85-9s-4.21-5-7.3-4.82" fill="#18c4ff"/><path d="m500.17 224.07a364.4 364.4 0 0 0 -51.6 51.48c-4.51 5.5-8.89 11.21-11.84 17.68a15.41 15.41 0 0 0 -1.73 7.57 16.8 16.8 0 0 0 2 5.95 107.54 107.54 0 0 0 39.25 43.14c2.4 1.49 5.18 2.93 7.91 2.22a11.1 11.1 0 0 0 4.36-2.84l35.73-32.48c5-4.52 10-9.15 13.4-15s4.76-13.19 2.05-19.34"/><path d="m499.59 223.49a338.46 338.46 0 0 0 -40.74 38.21 229.5 229.5 0 0 0 -17.51 21.13 53.73 53.73 0 0 0 -6.58 11.77 13.88 13.88 0 0 0 -1 6.82 20.11 20.11 0 0 0 2.31 6.35 109 109 0 0 0 31.22 37.5 63.9 63.9 0 0 0 10.71 7.08 9.91 9.91 0 0 0 6.1 1.11 11.36 11.36 0 0 0 5.22-3.14q11.25-10.15 22.44-20.39l11.24-10.21c3.34-3 6.75-6 9.82-9.32 5.7-6.15 10.44-14.13 9.55-22.84a19.76 19.76 0 0 0 -1.51-5.76c-.65-1.54-2.89-.21-2.25 1.31 3.32 7.79-.27 16.53-5.24 22.7a83.29 83.29 0 0 1 -8.72 8.9q-5.24 4.79-10.49 9.53l-21.16 19.25-5.34 4.86c-1.54 1.39-3.17 2.81-5.38 2.63s-4.18-1.5-6-2.64-3.28-2.14-4.87-3.27a106.39 106.39 0 0 1 -31-34.68c-2-3.57-4.73-7.72-4-12s3.26-8.33 5.56-11.88c4.74-7.32 10.62-14 16.38-20.52a399 399 0 0 1 37.41-37.06q2.49-2.16 5-4.29c.81-.69-.35-1.81-1.17-1.16z"/><path d="m523.06 394.16a1980.68 1980.68 0 0 0 -106.53 481.69c-.4 4.29-.82 8.69-2.78 12.52-2.5 4.92-7.21 8.27-10.81 12.45s-6.11 10.38-3.29 15.12a178.07 178.07 0 0 0 43.35 4.06c11.83-.35 25.27-2.87 31.46-13 3.18-5.18 3.82-11.46 4.51-17.49a464.33 464.33 0 0 1 36.29-134.4c15-34.06 34.43-67.68 36.1-104.86.47-10.57-.53-21.19.46-31.72 2.18-23.25 13.77-44.37 23.4-65.64 22.18-48.89 34.59-106.42 13.68-155.89" fill="#fff"/><path d="m416 880.4a24.92 24.92 0 0 1 -2.28 8c-2.51 4.92-7.21 8.27-10.81 12.45s-6.11 10.38-3.29 15.12a178.07 178.07 0 0 0 43.38 4.03c11.83-.35 25.27-2.87 31.46-13 3.18-5.18 3.82-11.46 4.51-17.49.06-.51.13-1 .19-1.53-21.66 1.79-44 1.15-63.16-7.58z" fill="#18c4ff"/><path d="m522.24 393.93q-20.07 56-36.84 113.05-16.72 57.33-29.91 115.59-13.12 58-22.76 116.69t-15.65 117.74q-.76 7.45-1.47 14.91c-.44 4.68-.54 9.61-2.18 14.06-3 8.05-11.77 11.94-15 19.87a12.46 12.46 0 0 0 -.33 9.73c.8 1.82 1.82 1.74 3.74 2.13 2.49.5 5 1 7.5 1.36a180.67 180.67 0 0 0 29.66 2.21c13.73-.11 31.59-1.94 37.91-16.32 3.54-8 3.45-17.66 4.63-26.25q2-14.28 4.83-28.41c7.72-38.29 20.63-74.91 37.08-110.29 7.74-16.61 15.72-33.19 21.45-50.62a158.61 158.61 0 0 0 6.49-26.82c1.35-9.36 1.34-18.71 1.23-28.15-.11-10.06.42-19.9 2.86-29.69a165.45 165.45 0 0 1 9.44-26.44c7.43-16.89 15.74-33.28 21.91-50.71 11.9-33.63 18.3-70.53 11.08-105.9a134.14 134.14 0 0 0 -7.8-25c-.61-1.47-3-.83-2.42.66 14 33.49 12.74 70.94 4 105.59a301.57 301.57 0 0 1 -18.3 51.08c-7.47 16.36-15.92 32.52-20.27 50.08a110.1 110.1 0 0 0 -2.94 27.26c.05 9.58.37 19.1-.83 28.63-2.32 18.35-8.7 35.93-16 52.81-7.23 16.68-15.44 32.92-22.45 49.7a462.94 462.94 0 0 0 -18.64 53.52 468.45 468.45 0 0 0 -12.06 55.84c-1.36 8.9-1.73 18.15-3.74 26.92-1.95 8.48-7.42 14.29-15.56 17.19-7.5 2.67-15.58 3-23.47 3a176.22 176.22 0 0 1 -30-2.65c-1.79-.32-5.57-.4-6.88-1.64-1.51-1.44-.9-4.71-.37-6.47 1.32-4.34 4.53-7.51 7.68-10.6 2.72-2.67 5.5-5.43 7.17-8.92 1.78-3.7 2.28-7.78 2.68-11.83 3.81-38.84 8.39-77.59 14.29-116.16q8.76-57.55 20.9-114.51 12.18-57.17 27.68-113.57 15.39-56.1 34-111.31 4.58-13.49 9.33-26.9c.37-1-1.28-1.49-1.65-.46z"/><path d="m545.71 398.07c0 106.68 43.08 253.4 47.09 265.82 21.69 67.36 44.65 134.63 76.65 197.75 5.53 10.92 11.51 22.8 9.18 34.82-1 4.87-3.19 10.14-.83 14.5 10.06 18.58 52.72-19.36 58.2-29.49 9.73-18-3.48-35.49-12.19-51-33-58.53-5-152-37.13-211-8.45-15.52-20.43-29.9-22.91-47.39-2-14.05 2.45-28.08 5.25-42 10-49.43-9.93-118.41-39.75-159.07" fill="#fff"/><path d="m736 881.47c5-9.17 4-18.19.65-26.88a121.76 121.76 0 0 1 -25.1 8c-12.61 2.74-25.49 4.34-38 7.32 3.93 8.53 6.87 17.49 5.12 26.53-1 4.87-3.19 10.14-.83 14.5 10.02 18.6 52.68-19.34 58.16-29.47z" fill="#18c4ff"/><path d="m560.58 530.66a730.75 730.75 0 0 0 22.49 105.5c7.88 27.19 16.93 54.11 26.06 80.9 13.64 40 28.49 79.68 46.17 118.1q6.6 14.34 13.73 28.41c4.67 9.24 9.71 19.38 8.75 30-.63 6.92-5 14.77.9 20.62 2.69 2.67 6.51 3.32 10.16 2.88 10.41-1.24 20.13-8.41 28.12-14.69a134.23 134.23 0 0 0 12.48-11.1 47.65 47.65 0 0 0 7.39-8.84c9.46-16-.71-33.41-8.93-47.36a136 136 0 0 1 -16.56-44.68c-6.29-33.52-4.38-67.93-6.78-101.81-1.14-16-3.12-32.2-7.76-47.65a116.31 116.31 0 0 0 -8.36-20.81c-4.3-8.2-9.59-15.82-14.16-23.86-4.79-8.44-8.84-17.49-9.6-27.28-.88-11.17 2-22.16 4.36-33a163.33 163.33 0 0 0 3.21-49 243.61 243.61 0 0 0 -29.5-97.24 181.63 181.63 0 0 0 -12.36-19.46c-1-1.34-3.23 0-2.24 1.31 19.54 26.77 31.94 59.15 38.23 91.55a194.06 194.06 0 0 1 3.62 49.62 163.57 163.57 0 0 1 -4 25.17c-2.24 10-4.61 20.24-3.9 30.57 1.27 18.5 13.06 33.37 21.94 48.86 7.86 13.7 12.34 28.83 15 44.34 5.58 32.86 3.86 66.44 6.3 99.57 1.15 15.65 3.14 31.38 7.65 46.45a117.8 117.8 0 0 0 8.18 20.5c4 7.77 9.07 15 12.72 23 3.93 8.6 6 18.19 2.18 27.22-1.64 3.88-4.36 7-7.25 10a116.75 116.75 0 0 1 -26.57 21c-6 3.39-18.63 9.69-23.3 1.06-2.45-4.53.28-10 1-14.66a34.58 34.58 0 0 0 -.53-12.9c-2.1-9.57-7.14-18.26-11.47-26.94-18.69-37.51-34.29-76.48-48.38-115.93q-16-44.87-30.27-90.38a751.73 751.73 0 0 1 -22.27-89.42q-2.76-15-4.85-30.06c-.15-1.09-1.8-.63-1.65.45z"/><path d="m607.24 196.64c-19.47.36-39 1.47-58 5.83s-37.5 12.09-52.45 24.53c-7.35 6.13-14 13.68-16.63 22.87-1.75 6.08-1.68 12.53-1.24 18.85a172.36 172.36 0 0 0 8.76 43.56c7 20.57 18.06 40.62 17.54 62.35-.16 6.61-.64 14.8 5.08 18.1 2.36 1.36 5.81 2 6.32 4.66.32 1.66-.79 3.26-1 4.95-.5 4.37 4.75 6.9 9 7.93a224.5 224.5 0 0 0 105.56-.09c8.53-2.08 18.42-6.26 19.76-14.94.72-4.74-1.43-9.85.51-14.23 1.06-2.41 3.19-4.14 4.9-6.14 5.59-6.48 6.76-15.6 7.09-24.15.58-14.89-.64-29.79-2.13-44.62-3.09-30.8-7.82-62.76-25.33-88.29-6.21-9-8.61-19.14-27.77-21.21"/><path d="m607.24 195.75c-24.9.4-50.18 2-74 10.07a122 122 0 0 0 -30.37 15c-8.81 6.1-17.48 13.67-22.12 23.53-5.21 11.05-3.75 23.93-2.17 35.66a175.78 175.78 0 0 0 9 36.5c4.05 11.19 9 22.08 12.37 33.51a88.51 88.51 0 0 1 3.52 17.21c.47 5.13-.11 10.27.31 15.4.36 4.31 1.6 8.81 5.48 11.24 1.66 1 4 1.41 5.39 2.88a2.46 2.46 0 0 1 .31 2.61 11.53 11.53 0 0 0 -.81 4c.29 4.6 5.26 7 9.13 8.12a155.29 155.29 0 0 0 18.13 3.69 227.41 227.41 0 0 0 75-.59 149.68 149.68 0 0 0 17.26-3.81 34.35 34.35 0 0 0 12.2-6.07 15 15 0 0 0 5.63-11.7c0-2.84-.64-5.66-.43-8.51s1.87-4.92 3.81-7a29.59 29.59 0 0 0 7.34-13.49 75 75 0 0 0 1.72-16.44c.28-13.17-.75-26.32-2-39.41-2.22-22.57-5-45.49-13.23-66.79a124.65 124.65 0 0 0 -7-15.18c-2.3-4.19-5.07-8.05-7.59-12.11-3.64-5.86-7.18-11.61-13.51-14.89a37.93 37.93 0 0 0 -13.35-3.59c-1.37-.15-1.36 2 0 2.16a32.82 32.82 0 0 1 13.19 4 23.92 23.92 0 0 1 7.15 6.77c1.86 2.6 3.37 5.42 5.06 8.13 2.59 4.17 5.32 8.21 7.61 12.56 10.29 19.56 14.57 41.67 17.24 63.41 1.46 11.9 2.66 23.87 3.33 35.84.36 6.44.52 12.9.37 19.35a68.64 68.64 0 0 1 -1.76 16 28.61 28.61 0 0 1 -2.76 6.9 37.49 37.49 0 0 1 -5 6.13 12.42 12.42 0 0 0 -3.3 6.62c-.37 2.74.14 5.47.29 8.2a12.73 12.73 0 0 1 -5.12 11.34c-3.51 2.72-7.85 4.3-12.09 5.46a199.16 199.16 0 0 1 -35.82 5.94 224.93 224.93 0 0 1 -36.43 0q-9.26-.74-18.42-2.26c-3-.5-6.06-1.07-9.07-1.7a83.21 83.21 0 0 1 -8.29-2 12 12 0 0 1 -5.37-3.05c-1.79-2-.58-3.87-.12-6.12a5.09 5.09 0 0 0 -2.18-5.41c-1.68-1.18-3.77-1.61-5.43-2.83-3.4-2.51-3.71-7.4-3.76-11.27-.06-5.26.18-10.42-.51-15.67-1.51-11.43-5.52-22.3-9.71-33-4.29-11-8.59-21.87-11.42-33.32a171.87 171.87 0 0 1 -3.48-18.15 126.84 126.84 0 0 1 -1.37-18.36 37.85 37.85 0 0 1 3.64-16.69 47.85 47.85 0 0 1 9.32-12.45 99.75 99.75 0 0 1 26.95-18.4c21.45-10.38 45.34-14.12 68.93-15.49 6.11-.36 12.23-.56 18.35-.7a.89.89 0 0 0 0-1.78z"/><path d="m494.69 130.06c-5.65 9.93-.55 23.93-7.55 33a8 8 0 0 0 -1.69 2.69c-.55 2.1 1 3.74 3 4.87 3.87 2.15 3.66 7.7 4.15 11.52.52 4 .72 8.12 1.48 12.09.66 3.41 2.08 6.86 4.87 8.94a12.6 12.6 0 0 0 7.83 2.18c4.15-.09 8.06-1.65 12.2-1.86 1.4-.07 3-.11 4 .81a5.35 5.35 0 0 1 1.33 2.44q2.5 7.48 4.79 15a6.92 6.92 0 0 0 1.91 3.56c1.36 1.09 3.29 1 5 .74a49.66 49.66 0 0 0 32.84-19.83 5 5 0 0 0 1.28-3.23 5.74 5.74 0 0 0 -1.73-2.98c-7.15-8.12-11.94-18.41-14.43-28.9-4-16.68 3.61-38.5-9.23-52.48a22.28 22.28 0 0 0 -11.5-6.61 38.63 38.63 0 0 0 -22.33 1.99c-6.24 2.47-14.3 7.28-15.33 14.6" fill="#fff"/><path d="m493.94 129.62c-2.53 4.46-3.07 9.6-3.39 14.63s-.33 10.48-2.56 15.15a16.61 16.61 0 0 1 -1.94 3.1 7 7 0 0 0 -1.88 3.57c-.31 2.59 1.69 4.35 3.69 5.58s2.62 3.35 3 5.52c.39 2.39.54 4.85.8 7.27.61 5.7.6 12.32 4.12 17.16 3.64 5 9.82 5.5 15.47 4.44 3-.57 6.2-1.6 9.34-1.36 1.77.13 2.24 1.3 2.75 2.82q.85 2.58 1.69 5.16c1 3.25 2 6.53 3.06 9.78.8 2.54 2.16 4.57 5 4.93 2.58.34 5.43-.4 7.93-1a50.7 50.7 0 0 0 7.69-2.58 51.42 51.42 0 0 0 13.75-8.64 48.47 48.47 0 0 0 5.68-5.87c1.54-1.89 3.87-4.33 3.2-7a8.1 8.1 0 0 0 -2-3.19c-1-1.2-2-2.43-3-3.7a62.68 62.68 0 0 1 -4.73-7.54 70.88 70.88 0 0 1 -6.31-16.71 64.08 64.08 0 0 1 -1.37-14.82c0-9.88.87-20.39-2.88-29.77a26.53 26.53 0 0 0 -9.1-12c-4.75-3.37-10.63-4.61-16.38-4.58a42.55 42.55 0 0 0 -16.92 3.78c-4.29 1.91-8.51 4.51-11.31 8.35a13.93 13.93 0 0 0 -2.6 6.26c-.15 1.13 1.56 1.66 1.77.48.81-4.62 4.42-8 8.21-10.42a40.14 40.14 0 0 1 13.8-5.45c5.71-1.13 12-1.12 17.51 1a22.09 22.09 0 0 1 11.19 9.82c4.78 8.32 4.44 18.47 4.32 27.74a116 116 0 0 0 .4 14.44 61.22 61.22 0 0 0 3.75 14.69 68.14 68.14 0 0 0 7.79 14.92c.71 1 1.45 2 2.21 3a30.59 30.59 0 0 1 3 3.6c.74 1.31 0 2.38-.76 3.47a40.66 40.66 0 0 1 -2.6 3.25 48.79 48.79 0 0 1 -26.33 15.39c-2 .44-5.63 1.57-7.36-.09-.95-.92-1.23-2.5-1.6-3.71q-.72-2.37-1.46-4.72c-1-3.14-2-6.28-3-9.39-.89-2.58-2.33-4.08-5.17-4.18-5.83-.2-11.52 3-17.35 1.47s-7.5-7.55-8.19-12.94c-.37-3-.62-5.94-1-8.9a63 63 0 0 0 -.8-6.28 9.39 9.39 0 0 0 -2.92-5.31c-1.67-1.36-4.77-2.5-3.05-5.16.65-1 1.47-1.9 2.09-2.94a19.2 19.2 0 0 0 1.47-3.15 28.73 28.73 0 0 0 1.46-6.92c.52-4.91.25-9.9 1.09-14.78a21.7 21.7 0 0 1 2.24-6.79.87.87 0 0 0 -1.5-.88z"/><path d="m500.47 155.32-.14.17.1-.09-.19.15a.41.41 0 0 1 .11-.07l-.23.1h.09a2.26 2.26 0 0 0 .33-.13l-.25.1.18-.05h-.28a.67.67 0 0 1 .2 0h-.29a.66.66 0 0 1 .2.06l-.26-.11a.72.72 0 0 1 .21.12l-.22-.17a1.8 1.8 0 0 1 .19.2l-.18-.23a1.36 1.36 0 0 1 .21.37l-.11-.28a1.25 1.25 0 0 1 .08.32v-.31a.91.91 0 0 1 0 .33l.05-.32a2.17 2.17 0 0 1 -.07.24l.12-.29a1 1 0 0 1 -.1.17l.19-.24-.12.12.24-.19a.35.35 0 0 1 -.12.07l.29-.13a.42.42 0 0 1 -.15 0h.32-.18.33l-.19-.05.29.12-.14-.08.25.19a.47.47 0 0 1 -.1-.1l.19.25-.29-.39.18.25-.05-.09.12.27a0 0 0 0 1 0 0 1.22 1.22 0 0 0 -.3-.5l-.23-.18a.91.91 0 0 0 -.42-.14.76.76 0 0 0 -.3 0 .6.6 0 0 0 -.29.08.58.58 0 0 0 -.25.15.82.82 0 0 0 -.29.32 1.48 1.48 0 0 0 -.21.74 1.32 1.32 0 0 0 .4 1 1.85 1.85 0 0 0 2.92-.28 2.13 2.13 0 0 0 .21-.49v-.14a3.12 3.12 0 0 0 .05-.44 2.39 2.39 0 0 0 -.26-1.08.71.71 0 0 0 -.13-.22 2.39 2.39 0 0 0 -.38-.46 2.22 2.22 0 0 0 -1-.51 1.89 1.89 0 0 0 -.82 0 1.46 1.46 0 0 0 -.5.2 1.43 1.43 0 0 0 -.65 1.27v.23a.73.73 0 0 0 .15.29.81.81 0 0 0 .46.31.9.9 0 0 0 .46 0 1 1 0 0 0 .52-.39z"/><path d="m497.14 149.38a2 2 0 0 0 1 0h.19-.17s.28 0 .32 0h.14c-.23 0-.29 0-.18 0a1.62 1.62 0 0 0 .62.11c.21 0 .43 0 .64.06l-.47-.06a16.13 16.13 0 0 1 1.66.31l-.48-.21h.08a2.26 2.26 0 0 0 1.57.21 2 2 0 0 0 1.33-1.18 2 2 0 0 0 -1.33-2.76 12.87 12.87 0 0 0 -4.63 0 2 2 0 0 0 -1.24.95 2.1 2.1 0 0 0 -.25 1.32 2.05 2.05 0 0 0 2 1.8 20.24 20.24 0 0 1 4.19.07l-.55-.07c.7.1 1.39.28 2.09.34l-1.05-3.88-.42.24a1.87 1.87 0 0 0 -.89 1.87 1.89 1.89 0 0 0 1.34 1.56l.47.14a2.09 2.09 0 0 0 1.11-4 9.84 9.84 0 0 0 -1.86-.28c-.5-.06-1-.12-1.49-.15a20.61 20.61 0 0 0 -2.94 0l.55 4.08h.12l-.56.07a16.38 16.38 0 0 1 1.72-.13c.57 0 1.14.06 1.71.09l-.54-4h-.09l.53-.07a11 11 0 0 0 -2.67.32 3.34 3.34 0 0 0 -.58.23l-.33.26c-.09.08-.08.07 0 0s0 0-.08 0l-.24.15c-.43.31-1 .73-1.12 1.3a1.11 1.11 0 0 0 .75 1.33z"/><path d="m532.47 152.13a3.06 3.06 0 0 0 -2.22 2.31 2.76 2.76 0 0 0 0 2 1.32 1.32 0 0 0 1.12.69 1.21 1.21 0 0 0 1.18-.82 1.27 1.27 0 0 0 -.58-1.45 1.5 1.5 0 0 0 -1.73.2 1 1 0 0 0 -.19 1 1 1 0 0 0 .87.58 2.27 2.27 0 0 0 .52-.09h-.25.16-.26.1l-.23-.1.07.05-.2-.16.07.06-.16-.19a.18.18 0 0 1 0 .07l-.1-.23a.19.19 0 0 1 0 .08v-.26-.26a.19.19 0 0 1 0 .08l.1-.23a.85.85 0 0 1 .25-.25l.23-.09h-.07.26-.11.26-.11l.23.09c-.12-.06.12.12.15.16s0 0 0 0l.1.23a.57.57 0 0 1 0-.14v.26a3.86 3.86 0 0 1 0-1v.25a3.5 3.5 0 0 1 .15-.64.42.42 0 0 1 0-.1l-.05.11s0-.1.06-.14a2.26 2.26 0 0 1 .16-.26c.11-.16-.07.08 0 0l.1-.11.1-.1s.15-.13 0 0 0 0 0 0l.12-.07c.16-.09-.1 0 0 0l.15-.05a.8.8 0 0 0 .56-1 .83.83 0 0 0 -1-.56z"/><path d="m501.81 180.38a12.66 12.66 0 0 0 3-1.55 10.59 10.59 0 0 0 1.36-1.13 5.6 5.6 0 0 0 1.16-1.41 1 1 0 0 0 -1.61-1.23 3.16 3.16 0 0 0 -.38.43l-.12.15c-.08.12.16-.19 0 0s-.33.4-.5.59c-.34.38-.71.73-1.08 1.07l-.56.47c-.19.16.09-.06 0 0l-.16.12-.31.22a12.15 12.15 0 0 1 -1.34.8.78.78 0 0 0 .61 1.43z"/><path d="m494.71 120.38c1 6.39 5.7 11.66 11.15 15.14s11.66 5.52 17.61 8.06a3.15 3.15 0 0 1 1.37.91 3.06 3.06 0 0 1 .46 1.33l1.34 7.11a8.36 8.36 0 0 1 5-5.14 6.07 6.07 0 0 1 6.67 2 7.87 7.87 0 0 1 1.21 4.58 16 16 0 0 1 -2.18 8 4.33 4.33 0 0 0 -.88 2.33 3.86 3.86 0 0 0 .64 1.62q1.62 2.73 3.26 5.45a13.59 13.59 0 0 0 3.67 4.45c2.83 1.93 6.59 1.49 10 1 1.71-.27 3.63-.66 4.56-2.12a6.22 6.22 0 0 0 .72-2.33q2.43-14.82 3.69-29.77c.38-4.48.68-9-.28-13.43-1.85-8.43-8.33-15.43-16.16-19.06s-16.85-4.16-25.37-2.76-16.62 4.66-24.44 8.32c-5.34 2.51-11.2 6-12.19 11.83-.93 5.45 2.86 10.5 6.62 14.55a27.05 27.05 0 0 1 6.47-19.58"/><path d="m493.94 120.59c1.12 7.58 6.91 13.35 13.3 17a98.67 98.67 0 0 0 11.76 5.41c1.16.47 2.32.94 3.48 1.44.95.41 1.47.63 1.69 1.72.48 2.36.86 4.75 1.29 7.12.25 1.33 2 1 2.4 0 1.17-3 4.35-5.48 7.65-4.15 3.6 1.45 3 6.49 2.15 9.49a13.58 13.58 0 0 1 -1.16 2.75 10.09 10.09 0 0 0 -1.16 2.41c-.48 2 1 3.74 1.95 5.32 1.75 2.95 3.4 6.64 6.45 8.49s6.6 1.48 9.87 1a11.3 11.3 0 0 0 4.59-1.31 5.49 5.49 0 0 0 2.37-4c1.5-8.42 2.53-16.94 3.35-25.44.76-7.83 1.79-16-1.44-23.39a30.49 30.49 0 0 0 -12.92-14c-13.79-7.84-30.62-5-44.65.55-3.53 1.39-7 2.91-10.42 4.62a27.57 27.57 0 0 0 -7.79 5.43 12.51 12.51 0 0 0 -3.59 8.18c-.09 3.63 1.59 7.05 3.72 9.88a38.17 38.17 0 0 0 3.56 4.06c.65.65 2.08.22 2-.81a25.13 25.13 0 0 1 6.09-18.8c.94-1.07-.65-2.64-1.56-1.56a29.74 29.74 0 0 0 -6.92 20.41l2-.82c-4.14-4.87-9-11.58-4.23-17.71a20.73 20.73 0 0 1 6.75-5.24 99.63 99.63 0 0 1 9.79-4.51c13.35-5.47 29.41-8.91 42.9-1.85a28.41 28.41 0 0 1 12.56 12.72c3.25 6.84 2.23 14.61 1.53 21.89q-1.17 12.31-3.12 24.54c-.26 1.65-.34 3.26-2.09 3.95a17.23 17.23 0 0 1 -4.45.83c-3.53.37-6.68-.07-8.88-3.11-1.22-1.68-2.22-3.54-3.29-5.31a11.22 11.22 0 0 1 -1.68-3c-.17-.94.9-2.14 1.29-3 1.55-3.25 2.42-7.52 1.19-11a7 7 0 0 0 -7.62-4.53c-3.48.43-6 3.16-7.21 6.29h2.4c-.46-2.37-.87-4.75-1.38-7.1-.44-2.05-1.69-2.66-3.51-3.41-4.09-1.68-8.26-3.15-12.23-5.09-6.94-3.4-13.79-8.8-15.25-16.83-.18-1-1.68-.57-1.53.42z"/><g fill="#18c4ff"><path d="m615.47 430.27a68 68 0 0 0 11.79 16.1 74.61 74.61 0 0 0 7.44 6.63c2.46 1.92 5.17 4.31 8.51 3.72 1.38-.25.78-2.28-.57-2.08-1.65.24-3.19-.82-4.47-1.72s-2.54-1.86-3.76-2.85a74.15 74.15 0 0 1 -6.58-6.07 83.81 83.81 0 0 1 -11-14.55.78.78 0 0 0 -1.35.79z"/><path d="m530.45 430.58a99.32 99.32 0 0 1 -16.76 18.69c-1.07.9.48 2.47 1.54 1.54a86.23 86.23 0 0 0 16.64-19.4c.56-.91-.82-1.68-1.42-.83z"/><path d="m476.58 624.21a34.85 34.85 0 0 1 11.41 4.5c.91.57 1.76-.88.84-1.43a35.82 35.82 0 0 0 -11.83-4.56c-1-.19-1.39 1.29-.41 1.49z"/><path d="m477.28 611.62 14.84 7.19c.93.46 1.75-.94.81-1.39l-14.88-7.12c-.88-.42-1.66.89-.77 1.32z"/><path d="m607.16 615.9a61.41 61.41 0 0 1 16.63-12.38c1-.51.11-2-.88-1.5a62.81 62.81 0 0 0 -16.91 12.75c-.7.75.42 1.88 1.13 1.13z"/><path d="m613.86 626.79a78 78 0 0 1 14.92-14.11c.87-.63 0-2.1-.86-1.46a80.57 80.57 0 0 0 -15.16 14.47c-.61.77.47 1.87 1.1 1.1z"/><path d="m607.67 603.13a104.48 104.48 0 0 0 17.41 25.54c.73.77 1.87-.38 1.16-1.16a108.55 108.55 0 0 1 -17.24-25.18c-.44-.91-1.8-.11-1.36.8z"/><path d="m616.66 593.2 15.09 24.29c.64 1 2.26.08 1.62-1l-15.07-24.3c-.64-1-2.28-.09-1.64 1z"/></g><path d="m585 198a363.82 363.82 0 0 1 72.89-.33c7.08.69 14.22 1.59 20.88 4.07a15.35 15.35 0 0 1 6.6 4.1 16.8 16.8 0 0 1 2.8 5.63 107.46 107.46 0 0 1 2.93 58.25c-.63 2.75-1.57 5.74-4 7.17a11 11 0 0 1 -5.09 1.09l-48.23 2.46c-6.72.34-13.57.67-20.07-1.06s-12.71-5.91-15.13-12.18"/><path d="m585 198.83a398.46 398.46 0 0 1 55.17-1.18 231.18 231.18 0 0 1 27.06 2.48 57.06 57.06 0 0 1 12.12 3.23 13.65 13.65 0 0 1 4.71 3 14.11 14.11 0 0 1 2.79 5.29 106.07 106.07 0 0 1 4.35 50.8c-.33 2.11-.74 4.21-1.2 6.29a18 18 0 0 1 -1.59 4.91c-2.07 3.75-6.94 3.1-10.62 3.28l-27.59 1.41-13.92.71c-4.43.23-8.87.53-13.31.35-7.5-.29-15.38-2.26-20.49-8.16a15.48 15.48 0 0 1 -2.68-4.35c-.62-1.53-3.14-.86-2.51.69 2.79 6.88 9.29 11.33 16.31 13.15 9 2.35 18.71 1.13 27.9.66l29.58-1.51 7.21-.37a53.79 53.79 0 0 0 6.71-.51c3.83-.68 5.88-3.67 6.91-7.19a80.13 80.13 0 0 0 2.37-12.67 108.4 108.4 0 0 0 .82-13.48 110.07 110.07 0 0 0 -3.39-26.85c-.55-2.14-1.17-4.27-1.85-6.37a28.12 28.12 0 0 0 -2.39-5.88c-2.09-3.48-5.75-5.18-9.44-6.45-8.78-3-18.32-3.63-27.52-4.31a338.11 338.11 0 0 0 -58.15.58q-3.69.36-7.36.81c-1 .12-1.07 1.73 0 1.64z"/><path d="m672.4 212.87c-7.75 18.47-5.63 36.78 1 55.69.53 1.51 1.19 3.12 2.55 3.95a7.37 7.37 0 0 0 3.57.76 387.1 387.1 0 0 0 58.27-2.18c17.45-2 35.35-5.37 49.87-15.26 12.58-8.56 21.72-21.5 27.85-35.43s9.46-28.91 12.27-43.87q3.54-18.92 6.07-38a88.41 88.41 0 0 0 -24.76-1.92c-3.84.25-7.83.81-11 3-2.93 2-4.82 5.21-6.68 8.25a266.25 266.25 0 0 1 -35.91 46.43c-3 3-6 6.07-9.74 8.1-4.47 2.44-9.6 3.32-14.64 4a222.37 222.37 0 0 1 -43.31 1.49c-4.12-.26-8.45-.59-12.16 1.19s-10.2 23.86-8.17 27.45" fill="#fff"/><path d="m671.69 212.45a64.05 64.05 0 0 0 -5.18 29.9 88.07 88.07 0 0 0 2.34 15q1 3.93 2.18 7.78c.68 2.15 1.24 4.61 2.49 6.52s3.15 2.59 5.37 2.73c2.67.16 5.35.18 8 .23q8.4.16 16.81-.05 16.57-.41 33.06-2.23c18.79-2.08 38.45-5.65 53.9-17.29 15-11.28 24.43-28.15 30.27-45.66a235.19 235.19 0 0 0 7.5-30.3q3.12-16.29 5.47-32.71.57-3.94 1.09-7.9a1.2 1.2 0 0 0 -.87-1.14 89.46 89.46 0 0 0 -25.9-1.91c-3.73.28-7.64.92-10.79 3.08s-5.09 5.35-7 8.5a268.94 268.94 0 0 1 -29.82 39.88c-2.76 3-5.56 6.09-8.51 8.94a29.31 29.31 0 0 1 -10.07 6.8 53.22 53.22 0 0 1 -11.92 2.55c-4.56.59-9.15 1-13.74 1.34a223.09 223.09 0 0 1 -27.12.13c-3.91-.22-8-.7-11.79.34a7 7 0 0 0 -4.58 3.14c-2.41 3.72-3.78 8.29-5 12.52a67.89 67.89 0 0 0 -1.62 7.05 21.08 21.08 0 0 0 -.42 5.43 5.32 5.32 0 0 0 .51 2c.75 1.41 2.9.16 2.15-1.26-.1-.2 0 .18 0-.06s-.07-.25-.1-.38a5.2 5.2 0 0 1 -.08-.77 17.1 17.1 0 0 1 .11-2.37 45.41 45.41 0 0 1 1.22-6.4 58.06 58.06 0 0 1 4.57-13 13.83 13.83 0 0 1 1.2-2 2.38 2.38 0 0 1 1.08-.89c3.45-1.61 7.61-1.14 11.29-.91a223.08 223.08 0 0 0 26.37.1q6.52-.36 13-1.11a91.51 91.51 0 0 0 12-1.91 28.86 28.86 0 0 0 10.31-4.75 67.25 67.25 0 0 0 8.45-7.91 266 266 0 0 0 29.93-37.8c2.13-3.27 4.09-6.64 6.21-9.91s4.71-5.9 8.56-7 7.82-1.17 11.7-1.19a87.32 87.32 0 0 1 12.82.89q3.2.48 6.36 1.18l-.87-1.15q-2.13 16-5 31.87c-1.77 9.9-3.67 19.79-6.32 29.5-4.83 17.72-12.53 35.22-26 48.12s-31.52 18.23-49.61 20.87a362.42 362.42 0 0 1 -62.7 3.32q-1.83 0-3.66-.12a4.67 4.67 0 0 1 -3.37-1.09c-1.51-1.58-2-4.41-2.67-6.42a104.87 104.87 0 0 1 -3.68-14.82 68.78 68.78 0 0 1 1.2-29.43 68.08 68.08 0 0 1 2.41-7.23c.34-.86-1.13-1.49-1.5-.64z"/><path d="m907.71 110.37a1392.36 1392.36 0 0 1 -211.85.08c-2.71-.21-5.7-.34-7.83 1.34-3 2.37-2.71 6.91-2.13 10.68 14 91.34 33.78 186.2 6.69 274.54-13.15 42.84-37.28 84.24-34.24 129 1.27 18.58 7.27 36.67 7.75 55.29a94.4 94.4 0 0 1 -16 54.85c-5.59 8.3-12.62 15.88-15.92 25.34-13.46 38.47 61.24 34.46 80.73 35.43 52.51 2.62 105.1 4.62 157.68 3 17.49-.55 40.28-4.49 45.08-24.58 6.43-26.86 12.88-53.93 14.18-81.52 2.26-48.27-11.3-97.35-.73-144.5 4.56-20.35 14-38.73 20.73-58.38a423.53 423.53 0 0 0 16.71-66.08c10.82-63.84 8.57-134.84-11-196.86-2.2-6.93-4.62-14.22-10.08-19s-22.88.86-37.12 1.14" fill="#fff"/><path d="m907.71 109.39a1394.36 1394.36 0 0 1 -200.16.39c-3.9-.27-7.79-.59-11.69-.86-3-.21-6.11-.3-8.62 1.53-4.85 3.56-3.11 10.73-2.34 15.71 2.37 15.39 4.86 30.75 7.26 46.13 4.94 31.76 9.46 63.64 11.38 95.74 1.86 31.15 1.27 62.6-4.1 93.4a295.35 295.35 0 0 1 -11.44 44.57c-4.83 14.14-10.48 28-15.69 42-10.31 27.69-18.62 56.48-14.69 86.29 2.07 15.68 6.48 31.08 6.89 47a92.69 92.69 0 0 1 -9.64 43.49 120.94 120.94 0 0 1 -11.43 17.9c-4.13 5.6-8.23 11.31-10.63 17.91-2.22 6.1-2.75 13 .55 18.78 6.8 12 24.1 15.07 36.49 16.77 14.16 1.95 28.39 1.86 42.65 2.27 31 .9 62 2.9 93 3.41 16.87.27 33.75.29 50.62 0 12-.22 24.25 0 36-2.81 9.35-2.27 18.7-6.83 23.79-15.37 3.23-5.43 4.14-11.95 5.56-18 1.94-8.23 3.82-16.47 5.5-24.75a311 311 0 0 0 6.32-47.06c.75-16-.24-32.08-1.5-48.07-2.49-31.51-6.28-63.72.48-95 3.3-15.29 9.5-29.68 15.25-44.16a384.69 384.69 0 0 0 14.84-45.81 444.37 444.37 0 0 0 13.53-90.52 449.67 449.67 0 0 0 -4.78-90.27 358.53 358.53 0 0 0 -9.79-44.43c-1.82-6.27-3.57-12.73-6.39-18.65-2-4.27-5.17-9.48-10-10.78-4.61-1.23-9.79-.35-14.43.27-6.7.9-13.37 2.19-20.15 2.38a1.29 1.29 0 0 0 0 2.58 175 175 0 0 0 19.11-2c4.72-.65 11.59-2.29 16.1 0 5.28 2.68 7.89 10.73 9.61 15.91 2.22 6.64 4.14 13.39 5.9 20.17a398.82 398.82 0 0 1 12.43 88.3c1.8 60.86-8.38 121.61-31.1 178.12-5.71 14.2-11.21 28.43-13.91 43.56-2.61 14.67-3.12 29.61-2.66 44.48 1 30.94 6 61.73 4.7 92.73-.68 16.35-3.22 32.55-6.5 48.56-1.54 7.53-3.24 15-5 22.5-1.51 6.37-2.38 13.42-6 19-5.54 8.71-15.95 12.47-25.65 14.22-12.92 2.34-26.45 1.78-39.51 1.91-32.57.31-65.15-.57-97.68-1.92-13-.55-25.92-1.46-38.88-1.76-6.29-.15-12.58-.17-18.86-.41-14.85-.55-31.16-1.34-44.87-7.65-5.25-2.41-10.53-6-12.53-11.71-3-8.48 1.9-17.73 6.48-24.6 3.91-5.87 8.46-11.28 12.15-17.31a96.17 96.17 0 0 0 13.51-60c-1.51-15.22-5.74-30-7.08-45.27-1.28-14.65.44-29.34 3.88-43.59 6.81-28.28 19.56-54.62 28.54-82.2 9.29-28.51 13.77-58.33 14.84-88.24 2.18-61.27-9-122-18.45-182.27-.57-3.68-1.28-7.37-1.68-11.08s-.19-8 4.26-8.79c3.4-.64 7.37.18 10.79.41q6.13.42 12.27.79 24.56 1.47 49.16 2.07 48.6 1.2 97.22-1 23.4-1 46.77-2.91c1.26-.1 1.27-2.06 0-2z"/><path d="m868 109.42a56.84 56.84 0 0 0 -25.09-8.82 15.67 15.67 0 0 0 -5.55.21c-3.62 1-6.32 4.16-7.65 7.66s-1.52 7.33-1.66 11.07c-.1 2.79.29 6.3 2.92 7.22 2 .69 4.2-.71 5.34-2.5s1.57-3.93 2.42-5.87a8.08 8.08 0 0 0 -1 8.6c.93 1.85 3 3.39 5 2.83 3.36-.95 2.93-6 5.2-8.68-.53 2.19-1.06 4.48-.51 6.66s2.56 4.17 4.79 3.87c3-.41 4.08-4.21 4.42-7.25.92 2.24 0 5.2 1.64 7a4 4 0 0 0 5 .22 9.1 9.1 0 0 0 3.1-4.29 27.49 27.49 0 0 0 2.1-10.74 5.24 5.24 0 0 1 .49-2.89c.38-.57 1-1 1.36-1.55s.31-1.55-.34-1.76" fill="#fff"/><path d="m868.38 108.75a50.42 50.42 0 0 0 -15.67-7.48 58.87 58.87 0 0 0 -8.71-1.78c-2.86-.37-5.78-.57-8.48.61-4.8 2.1-7.31 7.22-8.14 12.14a46.55 46.55 0 0 0 -.63 8.42c0 2.09.38 4.45 1.87 6a5 5 0 0 0 6.76.28c2.64-2 3.12-5.19 4.33-8 .44-1-.9-2.48-1.78-1.37a9.47 9.47 0 0 0 -2 7.64c.46 2.54 2.24 5.14 4.88 5.75a4.76 4.76 0 0 0 5.32-2.81c1-2 1.19-4.44 2.6-6.19l-2-1.15c-.63 2.56-1.27 5.4-.3 8a6.09 6.09 0 0 0 4.86 4.06c4.59.46 6.06-4.91 6.49-8.44l-2.37.32c1 2.88-.22 6.85 3.27 8.41 3.31 1.47 6.48-1 8-3.82a26.86 26.86 0 0 0 2.89-11.84 8.56 8.56 0 0 1 .15-2.82c.3-.78 1.12-1.22 1.53-1.94a2.41 2.41 0 0 0 -.76-3.4c-1.39-.72-2.61 1.39-1.22 2.09-.2-.1-1.6 1.91-1.74 2.27a11.6 11.6 0 0 0 -.38 4 26.23 26.23 0 0 1 -2.09 9.32c-.82 1.91-2.86 5.16-5.44 3.88-1.17-.59-1.24-2-1.32-3.2a12.71 12.71 0 0 0 -.55-3.62 1.21 1.21 0 0 0 -2.37.32c-.25 2-.95 6.17-3.74 6.07-1.58-.05-2.76-1.6-3.12-3-.51-2 0-4.09.51-6 .26-1.06-1.19-2.14-2-1.16a13.14 13.14 0 0 0 -2.12 4.37c-.42 1.28-.83 3.22-2.19 3.87-2.08 1-3.94-1.49-4.42-3.21a7 7 0 0 1 1.18-6.14l-1.89-1.1c-.88 2.11-1.33 4.69-3 6.36-1.42 1.4-3.64 1.77-4.64-.26a11.16 11.16 0 0 1 -.62-5.32 39.92 39.92 0 0 1 .81-7.48c.92-4 3.31-8.2 7.52-9.34 2.4-.65 5.07-.27 7.5.06a55.32 55.32 0 0 1 7.32 1.53 67.44 67.44 0 0 1 15.09 6.44c.88.51 1.57-.76.78-1.33z"/><path d="m491.05 333.34c-9.45 16.46-23 30.82-39.93 39.6a81.29 81.29 0 0 1 -54.35 7.06c-20.25-4.34-38.15-15.35-53-29.59a198.74 198.74 0 0 1 -20.34-23.13 252.49 252.49 0 0 1 -17.3-25.28c-5.23-8.95-9.94-18.56-17.38-25.94a60.8 60.8 0 0 0 -11.25-8.33c-3.86-2.38-7.85-4.74-11-8.06a19.3 19.3 0 0 1 -3.71-5.57c-.6-1.38-2.62-.19-2 1.18 3.84 8.86 13.43 12.75 20.86 18 8.68 6.09 14 15.56 19.1 24.61 2.54 4.5 5.08 9 7.95 13.28s6 8.76 9.08 13a226.65 226.65 0 0 0 20 24.13c14.53 15 32.07 27.2 52.33 32.92a84.94 84.94 0 0 0 56.57-3.34c17.53-7.52 32-21 42-37.2 1.31-2.12 2.54-4.3 3.71-6.5.47-.88-.84-1.65-1.33-.79z"/><path d="m264 237.67a28.69 28.69 0 0 0 8.25 9.61.89.89 0 0 0 1.21-.32.91.91 0 0 0 -.31-1.22 26.67 26.67 0 0 1 -7.73-8.9c-.51-.93-1.91-.11-1.42.83z"/><path d="m273.3 227a20.3 20.3 0 0 0 8.56 10.69c1 .59 1.85-.93.89-1.52a19.11 19.11 0 0 1 -7.93-9.59c-.35-.94-1.85-.55-1.52.42z"/><path d="m283.84 213.8a61.55 61.55 0 0 0 14.69 17.43c.89.71 2.17-.51 1.28-1.28a70.49 70.49 0 0 1 -14.62-16.95.78.78 0 0 0 -1.35.79z"/><path d="m306.43 254.7a79.13 79.13 0 0 0 -1.63-19.78q-.51-2.43-1.17-4.83c-.32-1.21-1.17-3.29.12-4.23 1.87-1.38 5 .87 6.53 1.87 4.69 3.08 9.19 6.81 11.93 11.81 1.56 2.86 2.34 6 3.5 9.06a40.79 40.79 0 0 0 4.1 7.86c6.3 9.48 15.37 17.16 24.52 23.79 8.89 6.45 18.36 12 27.54 18 10.51 6.87 20.51 14.51 28.6 24.19a1.24 1.24 0 0 0 1.52.19c10.41-7.64 18.88-17.7 27.65-27.09 4.41-4.7 8.87-9.38 13.71-13.64 1.09-.95 2.2-1.89 3.33-2.79.56-.44 1.13-.85 1.69-1.29-.21.16.62-.41.28-.24.13-.06-.11-.1 0 0a14.67 14.67 0 0 1 2.69 2.79 32.73 32.73 0 0 0 3.14 4.33 1.91 1.91 0 0 0 1.76.69 1.37 1.37 0 0 0 .82-.65 1.76 1.76 0 0 0 .23-1c.12-1.43-2.11-1.42-2.23 0 0-.08 1.21-1 1.36-.4a2.06 2.06 0 0 0 -.33-.36c-.43-.54-.8-1.14-1.19-1.71a39.5 39.5 0 0 0 -3.07-4.19c-.89-1-2.17-2.18-3.63-1.89a5.65 5.65 0 0 0 -2.19 1.36q-1.83 1.4-3.58 2.9c-9.65 8.29-17.85 18.13-26.66 27.27a119.78 119.78 0 0 1 -15.07 13.76l1.52.2c-7.46-8.93-16.58-16.18-26.2-22.64s-19.42-12-28.78-18.56a131.33 131.33 0 0 1 -13.76-10.89 73.26 73.26 0 0 1 -12.29-14 40.66 40.66 0 0 1 -4.21-8.8 39.39 39.39 0 0 0 -3.77-8.74c-3.12-4.87-7.75-8.54-12.57-11.61-2.08-1.32-5-2.79-7.46-1.67-3 1.35-2.09 4.78-1.39 7.25a84.84 84.84 0 0 1 3 23.62.8.8 0 0 0 1.6 0z"/><path d="m753.17 189c-4.62-.47-8.87 2.91-11.29 6.88-3.36 5.52-3.79 13.54 1.07 17.78a12.32 12.32 0 0 0 4.59 2.43c7.16 2.12 15.72-1.88 18.33-8.88s-1.54-15.87-8.71-18" fill="#18c4ff"/><path d="m753.17 188.25c-6.43-.65-11.73 4.89-13.82 10.47-2 5.27-1.64 12.08 2.94 15.92 9.5 8 26 .13 25.46-12.3-.25-6.21-4.28-12.17-10.34-14-1.16-.35-1.64 1.44-.5 1.81 4.56 1.46 7.7 5.74 8.48 10.37a12.46 12.46 0 0 1 -5.39 12.35c-4.07 2.79-9.61 3.63-14.12 1.37-4.8-2.4-6.14-7.83-5.06-12.77 1.24-5.66 6-12 12.35-11.65 1 .06 1-1.47 0-1.57z"/><path d="m765.19 263.6c-4.63-.48-8.87 2.9-11.29 6.87-3.36 5.53-3.8 13.53 1.1 17.78a12 12 0 0 0 4.59 2.43c7.16 2.12 15.72-1.87 18.33-8.87s-1.55-15.87-8.71-18" fill="#18c4ff"/><path d="m765.19 262.81c-6.43-.65-11.73 4.89-13.82 10.48-2 5.26-1.65 12.07 2.94 15.91 9.49 8 26 .14 25.45-12.3-.25-6.21-4.27-12.17-10.34-14-1.16-.35-1.64 1.44-.49 1.81a13.05 13.05 0 0 1 8.47 10.38 12.43 12.43 0 0 1 -5.4 12.34c-4.07 2.79-9.61 3.63-14.12 1.38-4.79-2.4-6.14-7.84-5-12.78 1.24-5.66 6-12 12.35-11.65 1 .06 1-1.47 0-1.57z"/><path d="m751.67 338.16c-4.63-.48-8.87 2.9-11.29 6.88-3.36 5.51-3.8 13.54 1.07 17.78a12.3 12.3 0 0 0 4.59 2.42c7.16 2.13 15.72-1.87 18.33-8.87s-1.54-15.87-8.71-18" fill="#18c4ff"/><path d="m751.67 337.37c-6.43-.65-11.73 4.89-13.82 10.48-2 5.27-1.65 12.07 2.94 15.91 9.49 8 26 .14 25.46-12.29-.25-6.21-4.28-12.18-10.34-14a.94.94 0 0 0 -.5 1.81 13.06 13.06 0 0 1 8.48 10.38 12.46 12.46 0 0 1 -5.39 12.34c-4.08 2.79-9.61 3.63-14.13 1.38-4.79-2.4-6.14-7.83-5-12.77 1.24-5.66 6-12 12.35-11.66 1 .06 1-1.47 0-1.57z"/><path d="m738.15 412.72c-4.62-.47-8.87 2.91-11.29 6.88-3.35 5.52-3.79 13.54 1.08 17.78a12.2 12.2 0 0 0 4.58 2.43c7.16 2.12 15.72-1.88 18.34-8.88s-1.55-15.87-8.72-18" fill="#18c4ff"/><path d="m738.15 411.94c-6.43-.65-11.73 4.89-13.82 10.47-2 5.27-1.64 12.08 2.94 15.92 9.5 8 26 .13 25.46-12.3-.25-6.21-4.28-12.17-10.34-14-1.16-.35-1.64 1.44-.5 1.81 4.56 1.46 7.7 5.74 8.48 10.37a12.46 12.46 0 0 1 -5.37 12.35c-4.07 2.79-9.61 3.63-14.12 1.37-4.8-2.4-6.14-7.83-5.06-12.77 1.24-5.66 6-12 12.35-11.65 1 .06 1-1.47 0-1.57z"/><path d="m724.64 487.29c-4.63-.48-8.87 2.9-11.29 6.87-3.36 5.52-3.8 13.54 1.07 17.78a12.06 12.06 0 0 0 4.58 2.43c7.17 2.12 15.73-1.87 18.34-8.87s-1.55-15.87-8.72-18" fill="#18c4ff"/><path d="m724.64 486.5c-6.44-.65-11.74 4.89-13.82 10.48-2 5.26-1.65 12.07 2.93 15.91 9.5 8 26 .14 25.46-12.3-.25-6.21-4.28-12.17-10.34-14-1.16-.35-1.64 1.44-.5 1.81a13 13 0 0 1 8.48 10.38 12.43 12.43 0 0 1 -5.39 12.32c-4.07 2.79-9.61 3.63-14.12 1.38-4.8-2.4-6.14-7.84-5.06-12.78 1.25-5.66 6-12 12.36-11.65 1 .06 1-1.47 0-1.57z"/><path d="m726.14 561.85c-4.63-.47-8.87 2.9-11.29 6.88-3.36 5.51-3.8 13.54 1.07 17.78a12.18 12.18 0 0 0 4.58 2.42c7.17 2.13 15.73-1.87 18.34-8.87s-1.55-15.87-8.72-18" fill="#18c4ff"/><path d="m726.14 561.06c-6.43-.65-11.73 4.89-13.82 10.48-2 5.27-1.65 12.07 2.94 15.92 9.49 7.95 26 .13 25.45-12.3-.25-6.21-4.28-12.17-10.34-14a.94.94 0 0 0 -.49 1.81 13.05 13.05 0 0 1 8.47 10.38 12.42 12.42 0 0 1 -5.35 12.33c-4.07 2.79-9.61 3.64-14.12 1.38-4.8-2.4-6.14-7.83-5.05-12.77 1.24-5.66 6-12 12.35-11.66 1 .06 1-1.47 0-1.57z"/><path d="m800.49 197.64a2.78 2.78 0 0 0 -.76 2.74c.2.79.9 1.83 1.81 1.86 1.06 0 2.54-1 3.39-1.52a13.62 13.62 0 0 0 2.76-2.38 14.47 14.47 0 0 0 3.17-13.9 1 1 0 0 0 -1.72-.46c-5.1 4-7.38 11.51-4 17.32 3.17 5.39 10.3 7.93 15.71 4.22a10.33 10.33 0 0 0 4.68-8.7 1.19 1.19 0 0 0 -2.2-.59 13.7 13.7 0 0 0 -.73 10.77 1.24 1.24 0 0 0 1.48.84 15.26 15.26 0 0 0 8.26-6.33l-2.24-.29c1.36 4.07 6.62 3.43 10 3.31l16.4-.56q16.51-.57 33-1.19l18.62-.69a.94.94 0 0 0 0-1.87q-30.92.79-61.84 1.66l-8.69.25c-1.53 0-4.51.28-5.14-1.57a1.24 1.24 0 0 0 -2.23-.29 12.63 12.63 0 0 1 -6.79 5.25l1.48.84a11.27 11.27 0 0 1 .48-8.89l-2.2-.6a8.13 8.13 0 0 1 -4.83 7.48 8.43 8.43 0 0 1 -8.91-1.4c-5.73-4.72-4.21-13.13 1.13-17.46l-1.72-.46a12.52 12.52 0 0 1 -7.57 15.52l.68.09a1.18 1.18 0 0 1 -.41-1.87.76.76 0 0 0 -1.08-1.08z"/><path d="m811 281.8c12.21-1.11 24.42-2.26 36.64-3.32a1 1 0 0 0 .92-1.21l-.84-3.69-1.45 1.11a34.48 34.48 0 0 0 27 5.68c1.2-.28.66-2-.5-1.81a35.06 35.06 0 0 1 -25.5-5.57c-.75-.52-1.65.33-1.45 1.11l.9 3.68.92-1.21c-12.21 1.26-24.43 2.42-36.64 3.63-1 .1-1 1.69 0 1.6z"/><path d="m894.79 282.93a1 1 0 0 0 0-2.07 1 1 0 0 0 0 2.07z"/><path d="m794.28 361a39.84 39.84 0 0 0 28.41-9.85 1 1 0 0 0 -.2-1.52c-2.1-1.48-4.78-.52-6.32 1.31a5.36 5.36 0 0 0 -.08 6.92 8.8 8.8 0 0 0 7.18 3.13c3.66-.14 6.91-2.17 9.89-4.09l-1.62-.93c-.27 3.29 2.53 6.07 5.65 6.6 3.63.61 7-1.62 9.31-4.25l-1.79-.47c2.52 7.05 12.95 4.78 18.48 4.31q14.55-1.23 29.09-2.53l16.65-1.46c1.21-.11 1.23-2 0-1.9l-27.34 2.22-13.68 1.13c-4.24.36-8.52.92-12.77 1-2.88.08-7.21-.16-8.36-3.39a1.09 1.09 0 0 0 -1.8-.47c-1.7 2-4.07 3.83-6.83 3.72-2.39-.1-4.66-2.06-4.46-4.55a1.08 1.08 0 0 0 -1.62-.93c-3.72 2.39-8.71 5.51-13.06 2.71-1.56-1-2.71-2.89-1.84-4.72.75-1.59 2.73-2.84 4.35-1.73l-.2-1.52a38.09 38.09 0 0 1 -27 9.63c-1-.05-1 1.53 0 1.59z"/><path d="m774.15 431.68a93.64 93.64 0 0 0 11.36.42q5.82 0 11.61-.48c3.27-.26 7.07-.23 10.14-1.52 2.5-1.06 4.45-3.65 3.6-6.44a1 1 0 0 0 -2 0 5.34 5.34 0 0 0 1.48 5 9.11 9.11 0 0 0 5.8 2.28 34.16 34.16 0 0 0 14.46-1.94l-1.28-.72c.65 1.92 1.43 4 3.1 5.26 2.14 1.64 4.77.87 7.18.4 6.2-1.2 12.4-2.37 18.59-3.61 1.22-.24.7-2.07-.51-1.85-5.24.95-10.48 2-15.72 2.95l-3.87.74a7.08 7.08 0 0 1 -3.65.18c-1.83-.67-2.56-2.95-3.12-4.62a1 1 0 0 0 -1.27-.73 34.71 34.71 0 0 1 -11.19 2 14.29 14.29 0 0 1 -5.36-.68c-1.61-.66-3.06-2.2-2.64-4.06h-2c1.05 3.36-3.29 4.56-5.71 4.88-3.16.42-6.35.69-9.53.89s-6.42.33-9.64.36-6.59-.17-9.88-.16c-1 0-.95 1.41 0 1.52z"/><path d="m769.12 508.79c7.76-.68 15.57.71 23.31-.36 6.53-.91 13-3.76 16.31-9.75a13.71 13.71 0 0 0 1.53-9.82 1 1 0 0 0 -1.84-.24c-2 3.61-3.74 7.65-3.28 11.86.37 3.42 2.17 6.88 5.4 8.38 3.39 1.58 7.42.7 10.4-1.36 3.47-2.4 5.61-6.14 7.62-9.74l-2.13-.58c-.25 4.72 0 11 5.09 13.14 5.55 2.4 11.05-2.81 14.26-6.75.81-1-.2-2.62-1.44-1.88-1.8 1.07-1.84 3.29-.78 4.93 1.4 2.13 3.88 2.36 6.14 1.55 1.35-.48 2.57-1.24 3.87-1.83a16.52 16.52 0 0 1 4.29-1.26 17.62 17.62 0 0 1 9.19 1.18c1.11.45 1.93-1.45.83-1.95a18.48 18.48 0 0 0 -13.67-.74c-2.17.75-4.24 2.44-6.55 2.67a2.05 2.05 0 0 1 -2.12-.93c-.29-.47-.57-1.21 0-1.55l-1.45-1.88c-2.52 3.07-7.2 8.29-11.73 6.28-4-1.77-3.82-7.35-3.64-11a1.15 1.15 0 0 0 -2.13-.57c-1.65 3-3.32 6-5.93 8.28-2.37 2-5.93 3.35-9 2.08-2.74-1.15-4.23-4.18-4.43-7-.26-3.64 1.25-7.15 2.88-10.32l-1.84-.24a12.15 12.15 0 0 1 -2.63 10.5 18.51 18.51 0 0 1 -9.82 6c-8.73 2.37-17.88.41-26.75 1.31-1 .1-1 1.66 0 1.57z"/><path d="m771.63 578.51 29.13-.11c4.37 0 8.88.29 13.22-.28a12.77 12.77 0 0 0 4.64-1.41 7.92 7.92 0 0 0 1.82-1.39c.74-.76 1.33-2.17 2.57-1.55.92.46 1.71 1.23 2.61 1.76a17.38 17.38 0 0 0 3 1.37 17 17 0 0 0 6.68.86c1.24-.08 1.25-2 0-1.94a15.59 15.59 0 0 1 -6.17-.8c-2-.68-3.37-2-5.15-2.93s-3.08-.34-4.21 1.06a7.76 7.76 0 0 1 -4.29 2.79 22.49 22.49 0 0 1 -5.48.58c-2.43 0-4.85.06-7.27.08l-14.57.16-16.54.18a.79.79 0 0 0 0 1.57z"/><path d="m860.69 582.12.84-2.51a1.15 1.15 0 0 0 -.11-.87 1.17 1.17 0 0 0 -.68-.51 1.14 1.14 0 0 0 -1.38.78l-.84 2.52a1.13 1.13 0 0 0 .11.86 1.13 1.13 0 0 0 2.06-.27z"/><g fill="#18c4ff"><path d="m487 266.55c-4 18.61-.86 37.94 4 56.08.71 2.64 1.44 5.26 2.24 7.88a80.61 80.61 0 0 0 2.47 7.77 1 1 0 0 0 1.88-.52c-.39-2.27-1.15-4.5-1.73-6.73s-1.19-4.5-1.78-6.75c-1.21-4.58-2.4-9.16-3.42-13.79a133 133 0 0 1 -3.4-27.74 87.87 87.87 0 0 1 1.21-15.75c.16-.95-1.26-1.38-1.47-.41z"/><path d="m498.33 342.44.4-.43a.59.59 0 0 0 .18-.29.76.76 0 0 0 0-.68.55.55 0 0 0 -.18-.29l-.18-.14a.89.89 0 0 0 -.45-.12h-.24a.86.86 0 0 0 -.39.23l-.44.4a.7.7 0 0 0 -.19.29.73.73 0 0 0 -.07.36.71.71 0 0 0 .07.35.7.7 0 0 0 .19.29l.19.15a.93.93 0 0 0 .46.12h.24a.86.86 0 0 0 .41-.24z"/><path d="m637.17 281.42a97 97 0 0 0 16.78-.48c1.18-.16 1.24-2 0-1.9a154.12 154.12 0 0 1 -16.78.78.8.8 0 0 0 0 1.6z"/><path d="m527.54 397a251.28 251.28 0 0 0 47.46 3.85 256.64 256.64 0 0 0 47.55-5.12c6.51-1.33 14.44-2.6 18.3-8.68l-1.19.32a5.69 5.69 0 0 0 7.29-2.32.9.9 0 0 0 -1.56-.91 3.91 3.91 0 0 1 -4.85 1.72.9.9 0 0 0 -1.2.31c-3.38 5.41-10.56 6.54-16.3 7.73q-11.5 2.39-23.19 3.68a255.22 255.22 0 0 1 -45.92 1c-8.69-.6-17.35-1.58-25.94-3-1-.17-1.38 1.29-.41 1.47z"/><path d="m521.36 393.83a2.51 2.51 0 0 0 -.32.48 2.66 2.66 0 0 0 -.2.56 2.52 2.52 0 0 0 0 1.19 1 1 0 0 0 .41.54.92.92 0 0 0 .69.09.94.94 0 0 0 .53-.41.88.88 0 0 0 .09-.69 2 2 0 0 1 -.09-.35v.24a3.08 3.08 0 0 1 0-.43v.23a1.39 1.39 0 0 1 .12-.41l-.09.19a1.71 1.71 0 0 1 .13-.23.71.71 0 0 0 .1-.31.74.74 0 0 0 0-.33.89.89 0 0 0 -.29-.42.77.77 0 0 0 -.5-.18.78.78 0 0 0 -.58.24z"/><path d="m516.53 395.16.56.27a.59.59 0 0 0 .31.09.62.62 0 0 0 .33 0 .64.64 0 0 0 .28-.15.67.67 0 0 0 .21-.23l.08-.19a.82.82 0 0 0 0-.44l-.08-.2a.83.83 0 0 0 -.3-.29l-.55-.29a.71.71 0 0 0 -.31-.1.62.62 0 0 0 -.33 0 .65.65 0 0 0 -.29.14.61.61 0 0 0 -.21.24l-.08.2a.82.82 0 0 0 0 .44l.08.2a.86.86 0 0 0 .3.3z"/><path d="m528.1 397.63a32.18 32.18 0 0 0 -.62 13 .77.77 0 0 0 1.49-.41 32.07 32.07 0 0 1 .6-12.15.76.76 0 0 0 -1.47-.4z"/><path d="m546 399.25a41 41 0 0 0 -.53 7.82c0 1.32.15 2.63.32 3.93.12.89.39 2.28 1.6 2.14 1-.12 1-1.77 0-1.64.14.1.18.08.1-.07v-.15a8.66 8.66 0 0 1 -.12-.89c-.07-.49-.12-1-.16-1.47-.09-1-.14-2.05-.15-3.08a38.68 38.68 0 0 1 .44-6.18c.14-1-1.32-1.38-1.47-.41z"/><path d="m565.46 400.39a38.92 38.92 0 0 0 .32 14.11c.21 1 1.73.58 1.53-.42a39.16 39.16 0 0 1 -.32-13.27c.16-1-1.38-1.43-1.53-.42z"/><path d="m585.71 401.14a86.93 86.93 0 0 1 .22 15.64c-.07 1.05 1.57 1.05 1.65 0a87 87 0 0 0 -.33-15.64c-.1-1-1.65-1-1.54 0z"/><path d="m605.71 399.07a34.66 34.66 0 0 1 .85 14.4c-.17 1.11 1.53 1.59 1.7.47a35.45 35.45 0 0 0 -1-15.29.78.78 0 0 0 -1.51.42z"/><path d="m623 394.61a49.4 49.4 0 0 1 1.73 15.73c-.06 1.1 1.65 1.1 1.71 0a47.61 47.61 0 0 0 -2-16.14.77.77 0 0 0 -1.49.41z"/><path d="m638.5 389.57a68.35 68.35 0 0 1 1.15 6.82q.21 1.68.33 3.36c0 .52.1 1.05.09 1.58a1.75 1.75 0 0 1 -.05.4c-.07.29-.15.2.05.19-1.15.06-1.15 1.85 0 1.78a1.93 1.93 0 0 0 1.73-2 19.66 19.66 0 0 0 -.27-4.05 66.48 66.48 0 0 0 -1.56-8.52c-.23-1-1.68-.55-1.47.41z"/></g></svg>